<svg width="245" height="30" viewBox="0 0 245 30" fill="none" xmlns="http://www.w3.org/2000/svg">
<path d="M5.08778 0.604004H0V29.2404H5.08778V9.03343L16.9592 27.8696H20.2377L32.1092 9.03343V29.2404H37.1969V0.604004H32.0432L18.6499 21.6382L5.08778 0.604004Z" fill="white"/>
<path d="M65.3233 1.91697C63.0419 0.640742 60.4703 0 57.606 0C54.7416 0 52.0566 0.638116 49.7778 1.91697C47.4964 3.19583 45.7081 4.94736 44.4078 7.1742C43.1075 9.40104 42.4561 11.9561 42.4561 14.8395C42.4561 17.7228 43.1075 20.2884 44.4078 22.5336C45.7081 24.7788 47.4964 26.5487 49.7778 27.8433C52.0566 29.1406 54.6678 29.7866 57.606 29.7866C60.5442 29.7866 63.0419 29.138 65.3233 27.8433C67.6022 26.5487 69.401 24.7762 70.7223 22.5336C72.0411 20.2884 72.7005 17.7254 72.7005 14.8395C72.7005 11.9535 72.0411 9.40104 70.7223 7.1742C69.4036 4.94736 67.6048 3.19583 65.3233 1.91697ZM66.3678 20.2332C65.5001 21.822 64.3053 23.0798 62.7781 24.012C61.251 24.9416 59.5287 25.4091 57.606 25.4091C55.6832 25.4091 53.895 24.9416 52.3494 24.012C50.8038 23.0824 49.5985 21.822 48.7307 20.2332C47.863 18.6445 47.4304 16.8483 47.4304 14.8395C47.4304 12.8306 47.863 11.0423 48.7307 9.47456C49.5985 7.90422 50.8038 6.66476 52.3494 5.75092C53.895 4.8397 55.6463 4.38277 57.606 4.38277C59.5656 4.38277 61.251 4.82919 62.7781 5.72465C64.3053 6.62012 65.5001 7.85958 66.3678 9.44831C67.2329 11.037 67.6681 12.8332 67.6681 14.8421C67.6681 16.851 67.2329 18.6471 66.3678 20.2359V20.2332Z" fill="white"/>
<path d="M89.346 21.2495L80.0646 0.604004H75.0981L87.418 29.2404H90.8679L103.921 0.604004H98.9149L89.346 21.2495Z" fill="white"/>
<path d="M164.868 22.1739L145.153 0.604004H140.239V29.2404H145.153C145.153 29.2404 145.237 9.08069 145.153 8.02504L164.697 29.2404H169.785V0.604004H164.871C164.871 0.604004 164.845 21.8903 164.871 22.1739H164.868Z" fill="white"/>
<path d="M175.938 5.36755H187.19V29.2404L192.122 29.3927V5.52248L203.867 5.36755V0.604004H175.938V5.36755Z" fill="white"/>
<path d="M215.433 0.580566H210.519V29.217H215.433V0.580566Z" fill="white"/>
<path d="M244.042 18.2349C243.665 17.2869 243.024 16.4649 242.119 15.7717C240.196 14.1436 232.339 11.9299 231.435 11.5832C230.53 11.2366 229.834 10.8821 229.343 10.5145C228.929 10.223 228.618 9.85796 228.412 9.41942C228.204 8.98088 228.082 8.5082 228.045 7.99613C228.045 7.3764 228.177 6.81969 228.441 6.326C228.705 5.83232 229.09 5.40428 229.599 5.03927C230.108 4.67426 230.72 4.40116 231.435 4.21734C232.149 4.03614 232.941 3.94423 233.808 3.94423C234.676 3.94423 235.57 4.09917 236.493 4.40903C237.416 4.7189 238.311 5.15744 239.178 5.72203C240.046 6.28662 240.837 6.93523 241.552 7.66526L244.435 4.5981C243.644 3.65012 242.662 2.82819 241.497 2.13493C240.328 1.44167 239.057 0.911218 237.68 0.546206C236.303 0.181194 234.919 0 233.526 0C232.057 0 230.691 0.191698 229.427 0.575092C228.164 0.958486 227.061 1.5257 226.12 2.27148C225.178 3.01989 224.442 3.88646 223.915 4.87383C223.387 5.85858 223.124 6.95362 223.124 8.15895C223.124 9.10955 223.256 9.97613 223.519 10.7613C223.783 11.5465 224.197 12.266 224.762 12.9225C225.553 13.7628 226.645 14.5007 228.04 15.1414C229.433 15.7796 235.71 17.6335 236.575 17.9618C237.129 18.1718 237.598 18.374 237.983 18.5684C238.485 18.8231 238.936 19.1776 239.268 19.6293C239.695 20.2096 239.909 20.8766 239.909 21.6276C239.909 22.2474 239.777 22.8146 239.513 23.324C239.249 23.8361 238.862 24.2746 238.355 24.637C237.846 25.002 237.242 25.2778 236.546 25.4589C235.85 25.6428 235.103 25.7321 234.315 25.7321C232.505 25.7321 230.883 25.4301 229.454 24.8287C228.022 24.2274 226.758 23.2689 225.666 21.9533L222.274 24.7998C223.517 26.3702 225.139 27.5913 227.135 28.4683C229.132 29.3454 231.376 29.7813 233.864 29.7813C235.897 29.7813 237.725 29.4242 239.347 28.7125C240.967 28.0009 242.248 27.0057 243.19 25.7294C244.132 24.4532 244.604 23.0115 244.604 21.4044C244.604 20.2359 244.414 19.1776 244.039 18.2296L244.042 18.2349Z" fill="white"/>
<path d="M133.459 0.604004H109.37V5.48046H128.608C128.608 5.48046 130.017 14.4062 124.879 20.9475C122.887 23.4816 119.643 25.5535 116.286 25.4065C113.775 25.2935 111.232 23.3556 111.48 20.6876C111.617 19.0148 112.659 17.644 114.582 16.6225C115.956 15.8925 117.784 15.3148 120.324 14.8106L119.904 10.2624C117.343 10.4567 114.906 11.0449 112.01 12.7046C108.713 14.5979 107.028 17.4602 107.007 21.2101C107.007 23.2321 107.584 25.2673 108.977 26.7982C109.784 27.6858 110.815 28.5261 111.931 28.9857C114.7 30.128 117.934 29.9914 120.725 28.9831C123.818 27.8618 126.981 25.4353 128.416 22.5441L129.175 21.0158C128.969 25.2305 129.784 29.2404 129.784 29.2404H134.777C131.855 19.4822 133.456 0.604004 133.456 0.604004H133.459Z" fill="white"/>
</svg>
