<svg width="245" height="53" viewBox="0 0 245 53" fill="none" xmlns="http://www.w3.org/2000/svg">
<path d="M5.08778 0.603973H0V29.2404H5.08778V9.03339L16.9592 27.8696H20.2377L32.1092 9.03339V29.2404H37.1969V0.603973H32.0432L18.6499 21.6381L5.08778 0.603973Z" fill="white"/>
<path d="M65.3234 1.91697C63.042 0.640742 60.4704 0 57.6061 0C54.7417 0 52.0567 0.638116 49.7779 1.91697C47.4964 3.19583 45.7082 4.94736 44.4079 7.1742C43.1076 9.40104 42.4561 11.9561 42.4561 14.8395C42.4561 17.7228 43.1076 20.2884 44.4079 22.5336C45.7082 24.7788 47.4964 26.5487 49.7779 27.8433C52.0567 29.1406 54.6679 29.7866 57.6061 29.7866C60.5443 29.7866 63.042 29.138 65.3234 27.8433C67.6023 26.5487 69.401 24.7762 70.7224 22.5336C72.0412 20.2884 72.7006 17.7254 72.7006 14.8395C72.7006 11.9535 72.0412 9.40104 70.7224 7.1742C69.4037 4.94736 67.6049 3.19583 65.3234 1.91697ZM66.3679 20.2332C65.5002 21.822 64.3053 23.0798 62.7782 24.012C61.2511 24.9416 59.5288 25.4091 57.6061 25.4091C55.6833 25.4091 53.8951 24.9416 52.3495 24.012C50.8039 23.0824 49.5985 21.822 48.7308 20.2332C47.8631 18.6445 47.4305 16.8483 47.4305 14.8395C47.4305 12.8306 47.8631 11.0423 48.7308 9.47456C49.5985 7.90422 50.8039 6.66476 52.3495 5.75092C53.8951 4.8397 55.6464 4.38277 57.6061 4.38277C59.5657 4.38277 61.2511 4.82919 62.7782 5.72465C64.3053 6.62012 65.5002 7.85958 66.3679 9.44831C67.233 11.037 67.6682 12.8332 67.6682 14.8421C67.6682 16.851 67.233 18.6471 66.3679 20.2359V20.2332Z" fill="white"/>
<path d="M89.346 21.2495L80.0645 0.603973H75.0981L87.4179 29.2404H90.8678L103.921 0.603973H98.9149L89.346 21.2495Z" fill="white"/>
<path d="M164.869 22.1738L145.153 0.603973H140.24V29.2404H145.153C145.153 29.2404 145.238 9.08066 145.153 8.02501L164.697 29.2404H169.785V0.603973H164.871C164.871 0.603973 164.845 21.8902 164.871 22.1738H164.869Z" fill="white"/>
<path d="M175.938 5.36751H187.19V29.2404L192.122 29.3927V5.52245L203.867 5.36751V0.603973H175.938V5.36751Z" fill="white"/>
<path d="M215.433 0.580353H210.519V29.2167H215.433V0.580353Z" fill="white"/>
<path d="M244.042 18.2349C243.665 17.2869 243.024 16.4649 242.119 15.7717C240.196 14.1436 232.339 11.9299 231.434 11.5832C230.53 11.2366 229.833 10.8821 229.343 10.5145C228.929 10.223 228.618 9.85796 228.412 9.41942C228.203 8.98088 228.082 8.5082 228.045 7.99613C228.045 7.3764 228.177 6.81969 228.441 6.326C228.705 5.83232 229.09 5.40428 229.599 5.03927C230.108 4.67426 230.72 4.40116 231.434 4.21734C232.149 4.03614 232.94 3.94423 233.808 3.94423C234.676 3.94423 235.57 4.09917 236.493 4.40903C237.416 4.7189 238.31 5.15744 239.178 5.72203C240.046 6.28662 240.837 6.93523 241.552 7.66526L244.435 4.5981C243.643 3.65012 242.662 2.82819 241.497 2.13493C240.328 1.44167 239.057 0.911218 237.68 0.546206C236.303 0.181194 234.919 0 233.526 0C232.057 0 230.691 0.191698 229.427 0.575092C228.164 0.958486 227.061 1.5257 226.12 2.27148C225.178 3.01989 224.442 3.88646 223.915 4.87383C223.387 5.85858 223.124 6.95362 223.124 8.15895C223.124 9.10955 223.255 9.97613 223.519 10.7613C223.783 11.5465 224.197 12.266 224.761 12.9225C225.553 13.7628 226.645 14.5007 228.04 15.1414C229.433 15.7796 235.71 17.6335 236.575 17.9618C237.129 18.1718 237.598 18.374 237.983 18.5684C238.484 18.8231 238.935 19.1776 239.268 19.6293C239.695 20.2096 239.909 20.8766 239.909 21.6276C239.909 22.2474 239.777 22.8146 239.513 23.324C239.249 23.8361 238.862 24.2746 238.355 24.637C237.846 25.002 237.242 25.2778 236.546 25.4589C235.85 25.6428 235.103 25.7321 234.315 25.7321C232.505 25.7321 230.883 25.4301 229.454 24.8287C228.021 24.2274 226.758 23.2689 225.666 21.9533L222.274 24.7998C223.517 26.3702 225.139 27.5913 227.135 28.4683C229.132 29.3454 231.376 29.7813 233.864 29.7813C235.897 29.7813 237.725 29.4242 239.347 28.7125C240.966 28.0009 242.248 27.0057 243.19 25.7294C244.131 24.4532 244.604 23.0115 244.604 21.4044C244.604 20.2359 244.414 19.1776 244.039 18.2296L244.042 18.2349Z" fill="white"/>
<path d="M133.458 0.603973H109.37V5.48043H128.608C128.608 5.48043 130.016 14.4062 124.879 20.9475C122.887 23.4816 119.643 25.5535 116.286 25.4064C113.775 25.2935 111.232 23.3555 111.48 20.6875C111.617 19.0148 112.659 17.644 114.582 16.6225C115.956 15.8925 117.784 15.3148 120.324 14.8106L119.904 10.2624C117.343 10.4567 114.906 11.0449 112.01 12.7045C108.713 14.5979 107.028 17.4602 107.007 21.2101C107.007 23.2321 107.584 25.2673 108.977 26.7982C109.784 27.6858 110.815 28.5261 111.931 28.9857C114.7 30.128 117.934 29.9914 120.725 28.983C123.818 27.8617 126.981 25.4353 128.416 22.5441L129.175 21.0158C128.969 25.2305 129.784 29.2404 129.784 29.2404H134.777C131.855 19.4822 133.456 0.603973 133.456 0.603973H133.458Z" fill="white"/>
<path d="M6.66245 49.6023H6.50684L1.9835 38.602H0.0581055V51.8527H1.56677V41.7847H1.69601L5.85537 51.8527H7.31128L11.4707 41.7847H11.6025V51.8527H13.1085V38.602H11.1858L6.66245 49.6023Z" fill="white"/>
<path d="M22.5482 42.4254C21.8704 41.9974 21.0791 41.7847 20.1797 41.7847C19.2804 41.7847 18.4891 41.9974 17.8113 42.4254C17.1334 42.8535 16.6033 43.4522 16.2261 44.2242C15.8463 44.9963 15.6564 45.8996 15.6564 46.9343C15.6564 47.9689 15.8463 48.8591 16.2261 49.6259C16.6059 50.3927 17.1334 50.9914 17.8113 51.4194C18.4891 51.8475 19.2777 52.0602 20.1797 52.0602C21.0818 52.0602 21.8704 51.8475 22.5482 51.4194C23.2261 50.9914 23.7536 50.3953 24.1334 49.6259C24.5132 48.8565 24.7031 47.961 24.7031 46.9343C24.7031 45.9075 24.5132 44.9963 24.1334 44.2242C23.7536 43.4522 23.2261 42.8535 22.5482 42.4254ZM22.8516 48.7856C22.6406 49.3554 22.3135 49.815 21.8704 50.1642C21.4273 50.5135 20.8655 50.6894 20.1797 50.6894C19.494 50.6894 18.9322 50.5135 18.4891 50.1642C18.0486 49.815 17.7189 49.3554 17.5079 48.7856C17.2969 48.2157 17.1888 47.5986 17.1888 46.9343C17.1888 46.2699 17.2943 45.6502 17.5079 45.0777C17.7216 44.5052 18.0486 44.0404 18.4891 43.6859C18.9322 43.3314 19.494 43.1555 20.1797 43.1555C20.8655 43.1555 21.4273 43.3314 21.8704 43.6859C22.3135 44.0404 22.6406 44.5026 22.8516 45.0777C23.0626 45.6528 23.1707 46.2699 23.1707 46.9343C23.1707 47.5986 23.0652 48.2157 22.8516 48.7856Z" fill="white"/>
<path d="M30.4239 49.8333H30.3184L27.5622 41.9134H25.8979L29.5904 51.8527H31.1492L34.8417 41.9134H33.1774L30.4239 49.8333Z" fill="white"/>
<path d="M43.4585 42.8824C43.0417 42.4963 42.5802 42.218 42.0738 42.0447C41.5674 41.8714 41.0531 41.7847 40.5335 41.7847C39.6314 41.7847 38.8455 42.0027 38.1703 42.4412C37.4977 42.8797 36.9728 43.4863 36.5983 44.2663C36.2238 45.0462 36.0365 45.9443 36.0365 46.9605C36.0365 47.9768 36.2238 48.8696 36.5983 49.6364C36.9728 50.4032 37.5082 50.9967 38.2045 51.4221C38.9008 51.8475 39.729 52.0602 40.6891 52.0602C41.3643 52.0602 41.9736 51.9552 42.5142 51.7451C43.0549 51.535 43.5112 51.2435 43.8778 50.8654C44.2471 50.4872 44.5082 50.0487 44.6638 49.5497L43.1815 49.1348C43.0523 49.4788 42.8677 49.7677 42.6303 49.9988C42.3929 50.2299 42.1081 50.4032 41.781 50.5161C41.454 50.6317 41.09 50.6868 40.6864 50.6868C40.0666 50.6868 39.5233 50.5529 39.0565 50.2824C38.5896 50.0119 38.223 49.618 37.9619 49.0981C37.7245 48.628 37.6005 48.0582 37.5768 47.3991H44.8194V46.7531C44.8194 45.8261 44.6955 45.0435 44.4502 44.4107C44.2023 43.7752 43.8726 43.2658 43.4558 42.8797L43.4585 42.8824ZM37.5847 46.0808C37.6137 45.6213 37.7245 45.1827 37.9302 44.7731C38.1676 44.2951 38.5105 43.9039 38.9536 43.6045C39.3967 43.3052 39.9242 43.1555 40.5361 43.1555C41.09 43.1555 41.5727 43.2815 41.9815 43.5362C42.3903 43.791 42.7068 44.1376 42.931 44.5788C43.1552 45.0199 43.2659 45.5189 43.2659 46.0808H37.5847Z" fill="white"/>
<path d="M57.171 49.7572H57.0153L53.0643 38.602H51.3737L56.261 51.8527H57.9253L62.8126 38.602H61.122L57.171 49.7572Z" fill="white"/>
<path d="M69.8943 42.3598C69.5013 42.1261 69.0978 41.9738 68.6784 41.8976C68.2617 41.8215 67.8898 41.7847 67.5707 41.7847C67.0669 41.7847 66.5579 41.853 66.0409 41.9895C65.524 42.1261 65.0466 42.3624 64.6114 42.7012C64.1762 43.0399 63.828 43.51 63.5696 44.1139L65.0255 44.6313C65.1943 44.2689 65.487 43.9275 65.9038 43.6098C66.3205 43.2894 66.8928 43.1318 67.6261 43.1318C68.3593 43.1318 68.8604 43.3078 69.2086 43.6623C69.5567 44.0168 69.7308 44.5131 69.7308 45.1512V45.2037C69.7308 45.4506 69.6438 45.6213 69.4671 45.7211C69.2903 45.8208 69.0134 45.8891 68.6362 45.9311C68.2564 45.9732 67.7632 46.0309 67.1566 46.1097C66.6924 46.1701 66.2335 46.2515 65.7745 46.3513C65.3182 46.4537 64.9015 46.606 64.5244 46.8082C64.1472 47.0104 63.8465 47.2914 63.6197 47.6459C63.3955 48.003 63.2821 48.4652 63.2821 49.0351C63.2821 49.681 63.4351 50.2325 63.7384 50.6894C64.0417 51.1437 64.4505 51.493 64.9675 51.7319C65.4844 51.9709 66.0567 52.0917 66.6898 52.0917C67.27 52.0917 67.7632 52.005 68.1641 51.8317C68.5677 51.6584 68.8894 51.451 69.1321 51.2041C69.3747 50.9573 69.5488 50.7288 69.6517 50.5109H69.7282V51.8554H71.2632V45.3061C71.2632 44.5157 71.134 43.8881 70.8729 43.4181C70.6117 42.948 70.2873 42.5961 69.8943 42.3624V42.3598ZM69.7282 48.2551C69.7282 48.67 69.62 49.0639 69.4064 49.4395C69.1928 49.815 68.8763 50.1222 68.4569 50.3585C68.0402 50.5949 67.5258 50.7131 66.9192 50.7131C66.3126 50.7131 65.8035 50.5791 65.4079 50.3087C65.0123 50.0382 64.8145 49.639 64.8145 49.1086C64.8145 48.7199 64.92 48.4127 65.131 48.1869C65.342 47.961 65.6189 47.7903 65.9618 47.6748C66.3073 47.5593 66.6766 47.4778 67.0775 47.4253C67.241 47.4043 67.4573 47.3754 67.7237 47.3439C67.99 47.3124 68.2643 47.273 68.5492 47.2284C68.8341 47.1837 69.0846 47.1286 69.3035 47.0656C69.5224 47.0025 69.6649 46.9343 69.7282 46.8555V48.2525V48.2551Z" fill="white"/>
<path d="M75.6046 38.602H74.0695V51.8527H75.6046V38.602Z" fill="white"/>
<path d="M84.7014 47.7903C84.7014 48.4127 84.5669 48.9221 84.2952 49.3239C84.0235 49.7257 83.6912 50.0224 83.2956 50.2167C82.8999 50.4111 82.5096 50.5082 82.1298 50.5082C81.4915 50.5082 80.9693 50.2929 80.5605 49.8622C80.1516 49.4316 79.9459 48.8538 79.9459 48.1291V41.9186H78.4109V48.2341C78.4109 49.0797 78.5507 49.7808 78.8276 50.3349C79.1046 50.889 79.487 51.3039 79.9723 51.577C80.4576 51.8501 81.0115 51.9866 81.6366 51.9866C82.3909 51.9866 83.0134 51.8107 83.5092 51.4588C84.0024 51.1069 84.3664 50.6789 84.6011 50.1747H84.704V51.858H86.239V41.9186H84.704V47.7929L84.7014 47.7903Z" fill="white"/>
<path d="M95.9978 42.8824C95.5811 42.4963 95.1196 42.218 94.6132 42.0447C94.1067 41.8714 93.5924 41.7847 93.0728 41.7847C92.1708 41.7847 91.3848 42.0027 90.7096 42.4412C90.0371 42.8797 89.5122 43.4863 89.1377 44.2663C88.7631 45.0462 88.5759 45.9443 88.5759 46.9605C88.5759 47.9768 88.7631 48.8696 89.1377 49.6364C89.5122 50.4032 90.0476 50.9967 90.7439 51.4221C91.4402 51.8475 92.2684 52.0602 93.2285 52.0602C93.9037 52.0602 94.5129 51.9552 95.0536 51.7451C95.5943 51.535 96.0506 51.2435 96.4172 50.8654C96.7865 50.4872 97.0476 50.0487 97.2032 49.5497L95.7209 49.1348C95.5917 49.4788 95.407 49.7677 95.1697 49.9988C94.9323 50.2299 94.6474 50.4032 94.3204 50.5161C93.9933 50.6317 93.6294 50.6868 93.2258 50.6868C92.606 50.6868 92.0627 50.5529 91.5958 50.2824C91.129 50.0119 90.7624 49.618 90.5013 49.0981C90.2639 48.628 90.1399 48.0582 90.1162 47.3991H97.3588V46.7531C97.3588 45.8261 97.2348 45.0435 96.9896 44.4107C96.7416 43.7752 96.4119 43.2658 95.9952 42.8797L95.9978 42.8824ZM90.1215 46.0808C90.1505 45.6213 90.2612 45.1827 90.467 44.7731C90.7043 44.2951 91.0472 43.9039 91.4903 43.6045C91.9334 43.3052 92.4609 43.1555 93.0728 43.1555C93.6267 43.1555 94.1094 43.2815 94.5182 43.5362C94.927 43.791 95.2435 44.1376 95.4677 44.5788C95.6919 45.0199 95.8027 45.5189 95.8027 46.0808H90.1215Z" fill="white"/>
<path d="M100.819 49.6259C100.497 49.6259 100.223 49.7414 99.9937 49.9699C99.7642 50.1983 99.6482 50.4715 99.6482 50.7918C99.6482 51.1122 99.7642 51.3853 99.9937 51.6138C100.223 51.8422 100.497 51.9578 100.819 51.9578C101.036 51.9578 101.231 51.9052 101.407 51.8002C101.584 51.6952 101.724 51.5534 101.829 51.3774C101.935 51.2015 101.988 51.0071 101.988 50.7944C101.988 50.4741 101.872 50.201 101.642 49.9725C101.413 49.7441 101.138 49.6285 100.817 49.6285L100.819 49.6259Z" fill="white"/>
<path d="M118.19 47.0577C118.19 47.6091 118.069 48.1028 117.826 48.5335C117.583 48.9641 117.238 49.3029 116.789 49.5471C116.341 49.7913 115.811 49.9121 115.199 49.9121C114.587 49.9121 114.06 49.7913 113.614 49.5471C113.168 49.3029 112.823 48.9668 112.577 48.5335C112.332 48.1028 112.211 47.6091 112.211 47.0577V38.5994H109.8V47.2572C109.8 48.2052 110.024 49.0403 110.47 49.7624C110.916 50.482 111.543 51.0439 112.356 51.4483C113.165 51.8527 114.115 52.0523 115.202 52.0523C116.288 52.0523 117.233 51.8501 118.042 51.4483C118.852 51.0465 119.482 50.482 119.931 49.7624C120.379 49.0429 120.603 48.2078 120.603 47.2572V38.5994H118.193V47.0577H118.19Z" fill="white"/>
<path d="M130.267 42.2232C129.753 41.9291 129.151 41.7821 128.463 41.7821C127.717 41.7821 127.092 41.9449 126.588 42.2731C126.084 42.6014 125.715 43.0425 125.485 43.5993H125.369V41.9107H123.119V51.8501H125.472V46.0257C125.472 45.5477 125.562 45.1381 125.741 44.802C125.921 44.4658 126.171 44.2085 126.488 44.0299C126.807 43.8514 127.171 43.7621 127.582 43.7621C128.189 43.7621 128.664 43.9485 129.009 44.324C129.355 44.6995 129.526 45.2195 129.526 45.8839V51.8501H131.879V45.5215C131.884 44.7284 131.744 44.0536 131.459 43.4968C131.174 42.9401 130.776 42.5147 130.265 42.2232H130.267Z" fill="white"/>
<path d="M136.634 38.602H134.281V51.8527H136.634V38.602Z" fill="white"/>
<path d="M145.939 42.4254C145.224 41.9974 144.38 41.7847 143.405 41.7847C142.429 41.7847 141.585 41.9974 140.87 42.4254C140.155 42.8535 139.601 43.4522 139.208 44.2242C138.815 44.9963 138.62 45.897 138.62 46.9238C138.62 47.9505 138.815 48.8486 139.208 49.6154C139.601 50.3822 140.155 50.9809 140.87 51.4089C141.585 51.837 142.429 52.0497 143.405 52.0497C144.38 52.0497 145.224 51.837 145.939 51.4089C146.654 50.9809 147.208 50.3848 147.601 49.6154C147.994 48.8486 148.189 47.9505 148.189 46.9238C148.189 45.897 147.994 44.9989 147.601 44.2242C147.208 43.4522 146.654 42.8535 145.939 42.4254ZM145.541 48.5598C145.364 49.0508 145.101 49.4421 144.744 49.7336C144.388 50.0251 143.948 50.1695 143.418 50.1695C142.888 50.1695 142.426 50.0251 142.07 49.7336C141.714 49.4421 141.445 49.0508 141.271 48.5598C141.097 48.0687 141.007 47.5199 141.007 46.9159C141.007 46.3119 141.094 45.7578 141.271 45.2615C141.448 44.7652 141.714 44.3739 142.07 44.0798C142.429 43.7857 142.877 43.6386 143.418 43.6386C143.958 43.6386 144.388 43.7857 144.744 44.0798C145.101 44.3739 145.364 44.7678 145.541 45.2615C145.718 45.7552 145.805 46.3067 145.805 46.9159C145.805 47.5251 145.718 48.0687 145.541 48.5598Z" fill="white"/>
<path d="M153.285 44.0588C153.649 43.8015 154.071 43.6728 154.551 43.6728C155.118 43.6728 155.572 43.833 155.912 44.156C156.252 44.4763 156.468 44.8781 156.558 45.356H158.808C158.755 44.6391 158.544 44.0142 158.169 43.4758C157.798 42.9375 157.296 42.5226 156.671 42.2259C156.046 41.9318 155.326 41.7821 154.517 41.7821C153.541 41.7821 152.697 42 151.984 42.4333C151.272 42.8666 150.721 43.4706 150.331 44.2452C149.94 45.0199 149.745 45.9101 149.745 46.9211C149.745 47.9321 149.938 48.8145 150.32 49.5839C150.703 50.3533 151.251 50.9573 151.963 51.3932C152.676 51.8291 153.53 52.0471 154.527 52.0471C155.363 52.0471 156.091 51.8947 156.711 51.5901C157.331 51.2855 157.821 50.8627 158.18 50.3218C158.539 49.7808 158.747 49.1585 158.805 48.4547H156.555C156.487 48.8118 156.357 49.1165 156.173 49.3659C155.986 49.6154 155.756 49.8071 155.482 49.9384C155.208 50.0697 154.896 50.1353 154.548 50.1353C154.058 50.1353 153.633 50.004 153.272 49.7441C152.91 49.4841 152.628 49.1112 152.43 48.6254C152.23 48.1396 152.132 47.5592 152.132 46.8817C152.132 46.2042 152.232 45.6396 152.435 45.1617C152.636 44.6838 152.921 44.3161 153.285 44.0588Z" fill="white"/>
<path d="M169.595 41.9134H166.847L163.26 45.9075H163.096V38.602H160.744V51.8527H163.096V48.5125L163.954 47.5986L167.01 51.8527H169.825L165.726 46.2042L169.595 41.9134Z" fill="white"/>
<path d="M181.886 46.7925H184.948C184.938 47.3991 184.806 47.9321 184.55 48.3864C184.281 48.8644 183.898 49.232 183.403 49.4893C182.907 49.7493 182.321 49.878 181.643 49.878C180.897 49.878 180.243 49.6968 179.681 49.337C179.119 48.9773 178.679 48.4495 178.362 47.7562C178.046 47.0629 177.888 46.2147 177.888 45.2142C177.888 44.2137 178.046 43.3787 178.365 42.688C178.684 41.9948 179.122 41.4696 179.681 41.1124C180.24 40.7553 180.876 40.5741 181.591 40.5741C181.989 40.5741 182.358 40.624 182.696 40.7264C183.033 40.8288 183.334 40.9785 183.595 41.1755C183.856 41.375 184.083 41.6114 184.27 41.8897C184.458 42.1681 184.608 42.4806 184.716 42.8325H187.172C187.071 42.1812 186.863 41.5851 186.541 41.0468C186.219 40.5085 185.813 40.041 185.317 39.6498C184.822 39.2585 184.255 38.9539 183.619 38.7412C182.981 38.5285 182.295 38.4208 181.559 38.4208C180.689 38.4208 179.882 38.5757 179.14 38.883C178.399 39.1902 177.753 39.6393 177.204 40.2275C176.653 40.8157 176.226 41.5326 175.92 42.3729C175.614 43.2132 175.461 44.1691 175.461 45.2405C175.461 46.6375 175.72 47.8455 176.236 48.8617C176.753 49.878 177.476 50.6605 178.402 51.2094C179.328 51.7582 180.401 52.0339 181.628 52.0339C182.727 52.0339 183.703 51.8107 184.553 51.3643C185.402 50.9179 186.069 50.2798 186.554 49.4526C187.04 48.6254 187.282 47.6433 187.282 46.5089V44.9175H181.881V46.7951L181.886 46.7925Z" fill="white"/>
<path d="M194.364 41.7716C193.792 41.7716 193.285 41.9291 192.84 42.2416C192.397 42.5541 192.083 42.9979 191.901 43.5704H191.798V41.9134H189.516V51.8527H191.869V46.0099C191.869 45.5871 191.967 45.2142 192.162 44.8913C192.357 44.5683 192.623 44.3135 192.964 44.1297C193.304 43.9459 193.689 43.854 194.116 43.854C194.317 43.854 194.522 43.8671 194.736 43.896C194.95 43.9249 195.108 43.9564 195.208 43.9905V41.8346C195.1 41.8136 194.965 41.7978 194.802 41.7873C194.638 41.7768 194.493 41.7716 194.364 41.7716Z" fill="white"/>
<path d="M203.247 42.4254C202.533 41.9974 201.689 41.7847 200.713 41.7847C199.737 41.7847 198.893 41.9974 198.178 42.4254C197.463 42.8535 196.909 43.4522 196.516 44.2242C196.123 44.9963 195.928 45.897 195.928 46.9238C195.928 47.9505 196.123 48.8486 196.516 49.6154C196.909 50.3822 197.463 50.9809 198.178 51.4089C198.893 51.837 199.737 52.0497 200.713 52.0497C201.689 52.0497 202.533 51.837 203.247 51.4089C203.962 50.9809 204.516 50.3848 204.909 49.6154C205.302 48.8486 205.497 47.9505 205.497 46.9238C205.497 45.897 205.302 44.9989 204.909 44.2242C204.516 43.4522 203.962 42.8535 203.247 42.4254ZM202.846 48.5598C202.67 49.0508 202.406 49.4421 202.05 49.7336C201.694 50.0251 201.253 50.1695 200.723 50.1695C200.193 50.1695 199.731 50.0251 199.375 49.7336C199.019 49.4421 198.75 49.0508 198.576 48.5598C198.402 48.0687 198.312 47.5199 198.312 46.9159C198.312 46.3119 198.4 45.7578 198.576 45.2615C198.753 44.7652 199.019 44.3739 199.375 44.0798C199.734 43.7857 200.182 43.6386 200.723 43.6386C201.264 43.6386 201.694 43.7857 202.05 44.0798C202.406 44.3739 202.67 44.7678 202.846 45.2615C203.023 45.7552 203.11 46.3067 203.11 46.9159C203.11 47.5251 203.023 48.0687 202.846 48.5598Z" fill="white"/>
<path d="M216.751 48.8643H216.654L214.86 41.9134H212.489L210.696 48.9011H210.603L208.849 41.9134H206.452L209.271 51.8527H211.727L213.6 45.1354H213.737L215.609 51.8527H218.057L220.884 41.9134H218.482L216.751 48.8643Z" fill="white"/>
<path d="M227.025 49.983C226.901 50.004 226.766 50.0146 226.618 50.0146C226.423 50.0146 226.246 49.9857 226.086 49.9253C225.925 49.8649 225.795 49.752 225.698 49.5865C225.6 49.4211 225.553 49.1795 225.553 48.8644V43.7279H227.523V41.916H225.553V39.5342H223.2V41.916H221.784V43.7279H223.2V49.253C223.195 49.8754 223.332 50.3927 223.606 50.805C223.881 51.2199 224.255 51.5245 224.727 51.7214C225.199 51.9184 225.73 52.0077 226.32 51.9893C226.653 51.9814 226.938 51.9499 227.17 51.8974C227.402 51.8449 227.581 51.7976 227.705 51.7556L227.309 49.9253C227.243 49.9437 227.151 49.962 227.027 49.983H227.025Z" fill="white"/>
<path d="M236.899 42.218C236.382 41.9291 235.778 41.7847 235.085 41.7847C234.323 41.7847 233.695 41.9475 233.204 42.2731C232.711 42.5987 232.35 43.0425 232.115 43.6019H231.999V38.5994H229.699V51.8501H232.052V46.0257C232.052 45.5477 232.144 45.1381 232.329 44.802C232.513 44.4658 232.769 44.2085 233.096 44.0299C233.423 43.8513 233.795 43.7621 234.212 43.7621C234.832 43.7621 235.314 43.9485 235.657 44.3214C236 44.6943 236.174 45.2142 236.174 45.8839V51.8501H238.527V45.5215C238.527 44.7179 238.384 44.0404 238.102 43.4837C237.817 42.927 237.419 42.5042 236.902 42.2154L236.899 42.218Z" fill="white"/>
<path d="M243.361 49.576C243.076 49.3003 242.744 49.1611 242.364 49.1611C241.985 49.1611 241.631 49.3003 241.352 49.576C241.069 49.8517 240.932 50.1852 240.935 50.5713C240.93 50.9678 241.069 51.3039 241.352 51.5796C241.634 51.8554 241.971 51.9945 242.364 51.9945C242.62 51.9945 242.855 51.9315 243.069 51.8028C243.282 51.6768 243.456 51.5035 243.588 51.2882C243.72 51.0728 243.789 50.8339 243.794 50.5686C243.789 50.18 243.646 49.8491 243.361 49.5734V49.576Z" fill="white"/>
</svg>
